<svg width="48" height="48" viewBox="0 0 48 48" fill="none" xmlns="http://www.w3.org/2000/svg">
<g filter="url(#filter0_d_307_27)">
<path d="M43.5764 11.522C43.9294 11.9813 44.0617 12.5325 43.9736 13.1755L42.2967 23.1888C42.2379 23.7095 42.0098 24.138 41.6127 24.4749C41.2156 24.8117 40.767 24.9801 40.2668 24.9801H15.8198L15.3344 27.8279H38.6341C39.1931 27.8279 39.6782 28.0346 40.0903 28.448C40.5022 28.8614 40.708 29.3743 40.708 29.9867C40.708 30.5991 40.5022 31.112 40.0903 31.5254C39.6782 31.9388 39.1931 32.1455 38.6341 32.1455H12.8632C12.2454 32.1455 11.7159 31.8852 11.2746 31.3649C10.8627 30.8442 10.7009 30.247 10.7892 29.5735L11.8924 23.3268L10.2155 5.78062L5.44969 4.21894C4.89074 4.03521 4.48623 3.68299 4.23617 3.1625C3.98611 2.64186 3.93462 2.09075 4.08172 1.50895C4.25823 0.927145 4.6039 0.506102 5.11873 0.245821C5.63356 -0.01446 6.15574 -0.0680473 6.68528 0.0850592L12.775 2.10607C13.1574 2.22855 13.4737 2.45821 13.7237 2.79504C13.9738 3.13188 14.1282 3.51472 14.1871 3.94342L14.5401 7.43425L42.1643 10.6495C42.7821 10.7411 43.2528 11.032 43.5764 11.522ZM15.9964 33.3397C16.879 33.3397 17.6291 33.6612 18.2469 34.3044C18.8647 34.9473 19.1736 35.7283 19.1736 36.647C19.1736 37.5654 18.8647 38.3541 18.2469 39.0125C17.6291 39.6708 16.879 40 15.9964 40C15.1138 40 14.3637 39.6708 13.7459 39.0125C13.1281 38.3542 12.8192 37.5656 12.8192 36.647C12.8192 35.7283 13.1281 34.9473 13.7459 34.3044C14.3636 33.6612 15.1138 33.3397 15.9964 33.3397ZM34.839 33.3397C35.7215 33.3397 36.4719 33.6612 37.0897 34.3044C37.7072 34.9473 38.0163 35.7283 38.0163 36.647C38.0163 37.5654 37.7074 38.3541 37.0897 39.0125C36.4719 39.6708 35.7215 40 34.839 40C33.9565 40 33.2062 39.6708 32.5886 39.0125C31.9708 38.3542 31.6617 37.5656 31.6617 36.647C31.6617 35.7283 31.9706 34.9473 32.5886 34.3044C33.2063 33.6612 33.9565 33.3397 34.839 33.3397Z" fill="#010002"/>
</g>
<defs>
<filter id="filter0_d_307_27" x="0" y="0" width="48" height="48" filterUnits="userSpaceOnUse" color-interpolation-filters="sRGB">
<feFlood flood-opacity="0" result="BackgroundImageFix"/>
<feColorMatrix in="SourceAlpha" type="matrix" values="0 0 0 0 0 0 0 0 0 0 0 0 0 0 0 0 0 0 127 0" result="hardAlpha"/>
<feOffset dy="4"/>
<feGaussianBlur stdDeviation="2"/>
<feComposite in2="hardAlpha" operator="out"/>
<feColorMatrix type="matrix" values="0 0 0 0 0 0 0 0 0 0 0 0 0 0 0 0 0 0 0.25 0"/>
<feBlend mode="normal" in2="BackgroundImageFix" result="effect1_dropShadow_307_27"/>
<feBlend mode="normal" in="SourceGraphic" in2="effect1_dropShadow_307_27" result="shape"/>
</filter>
</defs>
</svg>
