<svg width="40" height="40" viewBox="0 0 40 40" fill="none" xmlns="http://www.w3.org/2000/svg">
<g clip-path="url(#clip0_267_2)">
<path d="M20 40C31.0457 40 40 31.0457 40 20C40 8.95433 31.0457 0 20 0C8.95433 0 0 8.95433 0 20C0 31.0457 8.95433 40 20 40Z" fill="url(#paint0_linear_267_2)"/>
<path d="M7.44869 20.9783C9.78667 19.6905 12.3965 18.6157 14.835 17.5353C19.0302 15.7658 23.242 14.027 27.4963 12.4082C28.3241 12.1323 29.8113 11.8626 29.9572 13.0892C29.8773 14.8256 29.5488 16.5517 29.3235 18.2779C28.7516 22.0739 28.0906 25.8569 27.446 29.6404C27.2239 30.9007 25.6452 31.5531 24.635 30.7466C22.2073 29.1068 19.761 27.4829 17.3643 25.8051C16.5793 25.0073 17.3073 23.8617 18.0084 23.2921C20.0079 21.3216 22.1284 19.6474 24.0234 17.5751C24.5346 16.3407 23.0243 17.381 22.5261 17.6997C19.7888 19.5861 17.1184 21.5876 14.2324 23.2454C12.7583 24.0569 11.0401 23.3634 9.56659 22.9106C8.2454 22.3636 6.30952 21.8124 7.44869 20.9783Z" fill="white"/>
</g>
<defs>
<linearGradient id="paint0_linear_267_2" x1="15.0023" y1="1.668" x2="5.00233" y2="25" gradientUnits="userSpaceOnUse">
<stop stop-color="#37AEE2"/>
<stop offset="1" stop-color="#1E96C8"/>
</linearGradient>
<clipPath id="clip0_267_2">
<rect width="40" height="40" fill="white"/>
</clipPath>
</defs>
</svg>
