<svg width="40" height="40" viewBox="0 0 40 40" fill="none" xmlns="http://www.w3.org/2000/svg">
<g clip-path="url(#clip0_267_5)">
<path fill-rule="evenodd" clip-rule="evenodd" d="M13.8667 0H26.1333C37.3333 0 40 2.66667 40 13.8667V26.1333C40 37.3333 37.3333 40 26.1333 40H13.8667C2.66667 40 0 37.3333 0 26.1333V13.8667C0 2.66667 2.66667 0 13.8667 0Z" fill="#5181B8"/>
<path fill-rule="evenodd" clip-rule="evenodd" d="M32.7577 13.7804C32.9431 13.1625 32.7577 12.7083 31.8757 12.7083H28.959C28.2173 12.7083 27.8757 13.1006 27.6902 13.5333C27.6902 13.5333 26.2069 17.1485 24.1056 19.4969C23.4259 20.1767 23.1169 20.3929 22.7461 20.3929C22.5606 20.3929 22.2923 20.1767 22.2923 19.5588V13.7804C22.2923 13.0388 22.0771 12.7083 21.459 12.7083H16.8757C16.4123 12.7083 16.1336 13.0525 16.1336 13.3788C16.1336 14.0819 17.184 14.244 17.2923 16.2215V20.5167C17.2923 21.4583 17.1223 21.6292 16.7515 21.6292C15.7627 21.6292 13.3577 17.9975 11.9311 13.8423C11.6515 13.0346 11.3711 12.7083 10.6257 12.7083H7.70898C6.87565 12.7083 6.70898 13.1006 6.70898 13.5333C6.70898 14.3058 7.69794 18.1375 11.3132 23.205C13.7234 26.6656 17.119 28.5417 20.209 28.5417C22.0632 28.5417 22.2923 28.125 22.2923 27.4073V24.7917C22.2923 23.9583 22.4679 23.7921 23.055 23.7921C23.4877 23.7921 24.2292 24.0083 25.9598 25.6769C27.9373 27.6546 28.2632 28.5417 29.3757 28.5417H32.2923C33.1257 28.5417 33.5423 28.125 33.3019 27.3027C33.039 26.4831 32.0948 25.2944 30.8419 23.8848C30.1621 23.0813 29.1423 22.216 28.8336 21.7835C28.4009 21.2273 28.5244 20.98 28.8336 20.4856C28.8336 20.4856 32.3869 15.48 32.7577 13.7804Z" fill="white"/>
</g>
<defs>
<clipPath id="clip0_267_5">
<rect width="40" height="40" fill="white"/>
</clipPath>
</defs>
</svg>
